HIERARCHY
ROOT Hips
{
	OFFSET 0.000000 0.000000 0.000000
	CHANNELS 6 Xposition Yposition Zposition Zrotation Yrotation Xrotation 
	JOINT LHipJoint
	{
		OFFSET 0.000000 0.000000 0.000000
		CHANNELS 3 Zrotation Yrotation Xrotation
		JOINT LeftUpLeg
		{
			OFFSET 1.363060 -1.794630 0.839290
			CHANNELS 3 Zrotation Yrotation Xrotation
			JOINT LeftLeg
			{
				OFFSET 2.448110 -6.726130 0.000000
				CHANNELS 3 Zrotation Yrotation Xrotation
				JOINT LeftFoot
				{
					OFFSET 2.562200 -7.039590 0.000000
					CHANNELS 3 Zrotation Yrotation Xrotation
					JOINT LeftToeBase
					{
						OFFSET 0.157640 -0.433110 2.322550
						CHANNELS 3 Zrotation Yrotation Xrotation
						End Site
						{
							OFFSET 0.000000 0.000000 0.000000
						}
					}
				}
			}
		}
	}
	JOINT RHipJoint
	{
		OFFSET 0.000000 0.000000 0.000000
		CHANNELS 3 Zrotation Yrotation Xrotation
		JOINT RightUpLeg
		{
			OFFSET -1.305520 -1.794630 0.839290
			CHANNELS 3 Zrotation Yrotation Xrotation
			JOINT RightLeg
			{
				OFFSET -2.542530 -6.985550 0.000000
				CHANNELS 3 Zrotation Yrotation Xrotation
				JOINT RightFoot
				{
					OFFSET -2.568260 -7.056230 0.000000
					CHANNELS 3 Zrotation Yrotation Xrotation
					JOINT RightToeBase
					{
						OFFSET -0.164730 -0.452590 2.363150
						CHANNELS 3 Zrotation Yrotation Xrotation
						End Site
						{
							OFFSET 0.000000 0.000000 0.000000
						}
					}
				}
			}
		}
	}
}
MOTION
Frames: 16
Frame Time: 0.008333
-2.422257 15.899176 -0.928720 51.333691 84.134519 77.704539 -12.202649 1.178207 -5.413854 -4.895661 14.065515 -27.624502 -1.061171 3.840487 55.763323 0.248674 -1.411359 -1.548257 -0.127200 0.000000 -77.877200 7.551893 1.009044 -2.527558 20.157249 -2.550242 -65.053173 2.223874 -4.547616 50.050433 -3.235883 -8.681094 -20.348609 -178.380701 -0.000000 -14.911200
-2.291742 15.886685 -0.871173 50.213174 83.869400 76.454153 -12.234818 1.205044 -5.409581 -4.680786 14.064011 -27.832761 -0.876414 3.936811 56.916532 0.273961 -1.624869 0.289499 -0.221400 -0.000001 -77.214400 7.604912 1.053064 -2.608261 20.045369 -2.615076 -64.641884 2.165665 -4.574816 50.909729 -3.274830 -8.627197 -21.357468 -178.164900 0.000000 -14.825900
-2.162873 15.875162 -0.813468 49.374337 83.593436 75.488934 -12.257074 1.224915 -5.397935 -4.522062 14.016301 -28.072493 -0.694012 4.022759 58.057284 0.317888 -1.754820 2.139770 -0.327500 0.000001 -75.834400 7.664244 1.096092 -2.689402 19.921415 -2.718934 -64.222231 2.114437 -4.599356 51.704604 -3.302550 -8.545611 -22.290787 -177.971399 -0.000000 -14.805901
-2.035597 15.864966 -0.756141 48.680345 83.310409 74.684385 -12.272889 1.235744 -5.377320 -4.415021 13.927279 -28.359810 -0.518389 4.098952 59.180069 0.378957 -1.780784 3.946128 -0.430500 0.000001 -73.822900 7.724848 1.134614 -2.765485 19.796699 -2.840147 -63.812945 2.068292 -4.621448 52.440670 -3.319969 -8.443577 -23.130818 -177.803900 -0.000000 -14.867100
-1.910171 15.856370 -0.699452 48.052601 83.013625 73.956036 -12.281577 1.239894 -5.352446 -4.362464 13.808954 -28.686492 -0.353329 4.167662 60.286772 0.452936 -1.699354 5.644787 -0.514900 0.000000 -70.943100 7.788599 1.170939 -2.842474 19.673587 -2.992572 -63.419998 2.026481 -4.644670 53.142552 -3.322348 -8.303827 -23.876726 -177.666200 0.000000 -14.997800
-1.786651 15.849638 -0.643794 47.369771 82.706595 73.192120 -12.285524 1.236132 -5.324429 -4.355740 13.674402 -29.066644 -0.201574 4.231297 61.375157 0.536572 -1.488942 7.165110 -0.561599 -0.000000 -67.441700 7.851276 1.201838 -2.915394 19.563993 -3.154558 -63.050540 1.988963 -4.667626 53.805933 -3.311862 -8.131733 -24.529639 -177.557801 0.000000 -15.164800
-1.665203 15.844918 -0.589305 46.559473 82.386817 72.320254 -12.284542 1.225641 -5.297251 -4.390586 13.539119 -29.501399 -0.064361 4.292795 62.445819 0.625893 -1.138398 8.444710 -0.554700 -0.000000 -63.408500 7.912686 1.227275 -2.984463 19.473019 -3.321511 -62.704298 1.956347 -4.690410 54.434280 -3.288184 -7.920886 -25.100948 -177.478000 0.000000 -15.325300
-1.545916 15.842242 -0.535979 45.571202 82.052550 71.291840 -12.278043 1.209241 -5.273860 -4.461981 13.416234 -29.992433 0.058440 4.354317 63.494867 0.718410 -0.634638 9.441133 -0.482600 0.000000 -59.164200 7.972594 1.246933 -3.047989 19.403622 -3.483588 -62.377385 1.929516 -4.711853 55.022525 -3.252758 -7.670390 -25.605115 -177.424400 -0.000001 -15.435700
-1.428830 15.841534 -0.483659 44.390469 81.699792 70.089782 -12.264624 1.188696 -5.257420 -4.567311 13.317163 -30.535794 0.167646 4.417807 64.520684 0.811952 0.025583 10.118291 -0.341000 -0.000000 -54.863900 8.032345 1.261528 -3.106208 19.355158 -3.639403 -62.063227 1.909577 -4.731580 55.569111 -3.205803 -7.374482 -26.058324 -177.395400 0.000000 -15.461399
-1.313937 15.842579 -0.432123 43.027306 81.325409 68.723575 -12.242810 1.165068 -5.249394 -4.703835 13.247352 -31.127972 0.264643 4.483981 65.518494 0.906055 0.840610 10.465079 -0.133500 0.000000 -50.778800 8.093094 1.271532 -3.157996 19.324743 -3.783988 -61.754796 1.897382 -4.748611 56.067851 -3.148564 -7.032410 -26.473967 -177.389100 0.000000 -15.375800
-1.201115 15.845198 -0.381206 41.489027 80.932314 67.203967 -12.213169 1.137098 -5.248627 -4.860777 13.207472 -31.770917 0.351015 4.552781 66.481340 1.001822 1.798218 10.502280 0.127300 0.000000 -47.301600 8.153001 1.275123 -3.200234 19.316075 -3.902990 -61.444513 1.893622 -4.760691 56.505220 -3.084425 -6.653103 -26.861069 -177.402000 -0.000000 -15.167700
-1.090339 15.849042 -0.330458 39.853210 80.512326 65.599785 -12.172553 1.107750 -5.256347 -5.045671 13.195039 -32.449657 0.427310 4.623504 67.405296 1.098679 2.873843 10.226562 0.421900 0.000000 -44.289700 8.216747 1.275495 -3.235832 19.315285 -4.010872 -61.126998 1.898231 -4.769370 56.887743 -3.011362 -6.227903 -27.224559 -177.435800 0.000000 -14.833300
-0.981380 15.853906 -0.279708 38.152014 80.069220 63.945584 -12.122107 1.075495 -5.269429 -5.249303 13.202079 -33.163027 0.494255 4.694671 68.280622 1.197983 4.035898 9.683484 0.726600 0.000000 -41.973800 8.282599 1.271149 -3.263242 19.324018 -4.099667 -60.797921 1.910884 -4.773467 57.208096 -2.931665 -5.766326 -27.563125 -177.488700 0.000000 -14.388300
-0.874063 15.859589 -0.228763 36.440706 79.602538 62.293421 -12.061880 1.040813 -5.285760 -5.470769 13.219448 -33.903379 0.551778 4.764798 69.100089 1.299253 5.243435 8.902982 1.015600 0.000000 -40.213599 8.351376 1.262861 -3.283875 19.336588 -4.175321 -60.456291 1.930617 -4.773789 57.470487 -2.844944 -5.269877 -27.871555 -177.561200 -0.000000 -13.855300
-0.768241 15.865980 -0.177545 34.762320 79.113904 60.684431 -11.992832 1.003551 -5.301982 -5.707352 13.234640 -34.664918 0.599666 4.831982 69.853833 1.401711 6.452342 7.931976 1.265599 0.000000 -38.918299 8.422847 1.251040 -3.299282 19.349898 -4.242602 -60.103108 1.956127 -4.771101 57.679983 -2.751075 -4.742434 -28.141818 -177.653800 -0.000000 -13.266500
-0.663716 15.873081 -0.126006 33.149091 78.605716 59.150075 -11.916165 0.963631 -5.314572 -5.956514 13.234411 -35.442750 0.637702 4.894357 70.532852 1.503669 7.618287 6.822270 1.459200 0.000001 -37.953800 8.496668 1.236274 -3.311359 19.361566 -4.307060 -59.742193 1.985930 -4.766500 57.844174 -2.649829 -4.187848 -28.365286 -177.766100 0.000000 -12.656800
